<svg width="312" height="33" viewBox="0 0 312 33" fill="none" xmlns="http://www.w3.org/2000/svg">
<path d="M14.5351 0.120299H21.1975V22.3489C21.1975 24.4037 20.7357 26.1886 19.8121 27.7037C18.8989 29.2188 17.6276 30.3863 15.9984 31.2061C14.3691 32.0259 12.4752 32.4359 10.3167 32.4359C8.39683 32.4359 6.65341 32.0986 5.08641 31.424C3.52978 30.7391 2.29486 29.7014 1.38164 28.3108C0.468417 26.9098 0.0169956 25.1508 0.0273731 23.0338H6.73643C6.75719 23.8744 6.92841 24.5956 7.25012 25.1975C7.5822 25.7891 8.03362 26.2457 8.60438 26.5674C9.18552 26.8787 9.87044 27.0344 10.6591 27.0344C11.4893 27.0344 12.1898 26.8579 12.7606 26.5051C13.3417 26.1419 13.7828 25.6126 14.0837 24.9174C14.3847 24.2221 14.5351 23.3659 14.5351 22.3489V0.120299ZM35.2171 32.4514C33.6916 32.4514 32.3321 32.1868 31.1387 31.6575C29.9453 31.1179 29.001 30.324 28.3057 29.2759C27.6207 28.2174 27.2783 26.8995 27.2783 25.3221C27.2783 23.9938 27.5222 22.8782 28.0099 21.9753C28.4976 21.0725 29.1618 20.3461 30.0024 19.7961C30.843 19.246 31.7977 18.8309 32.8666 18.5508C33.9458 18.2706 35.077 18.0734 36.26 17.9592C37.6506 17.8139 38.7714 17.679 39.6223 17.5545C40.4733 17.4196 41.0908 17.2224 41.4747 16.963C41.8587 16.7036 42.0507 16.3196 42.0507 15.8111V15.7177C42.0507 14.7318 41.7393 13.9691 41.1167 13.4295C40.5044 12.8898 39.6327 12.62 38.5016 12.62C37.3081 12.62 36.3586 12.8846 35.6529 13.4139C34.9473 13.9328 34.4803 14.5865 34.252 15.3752L28.1189 14.8771C28.4302 13.4243 29.0425 12.1686 29.9557 11.1101C30.8689 10.0412 32.0468 9.22137 33.4892 8.65061C34.9421 8.06947 36.6232 7.7789 38.5327 7.7789C39.861 7.7789 41.1323 7.93456 42.3464 8.24589C43.571 8.55721 44.6554 9.03977 45.5998 9.69355C46.5545 10.3473 47.3069 11.1879 47.8569 12.2153C48.4069 13.2323 48.6819 14.4516 48.6819 15.8734V32H42.3931V28.6844H42.2063C41.8224 29.4316 41.3087 30.0905 40.6653 30.6613C40.0219 31.2217 39.2487 31.6627 38.3459 31.9844C37.4431 32.2958 36.4001 32.4514 35.2171 32.4514ZM37.1162 27.8749C38.0917 27.8749 38.953 27.683 39.7002 27.299C40.4473 26.9046 41.0337 26.3754 41.4592 25.7112C41.8846 25.0471 42.0974 24.2947 42.0974 23.4541V20.9168C41.8898 21.0517 41.6044 21.1763 41.2412 21.2904C40.8884 21.3942 40.4889 21.4928 40.0426 21.5862C39.5964 21.6692 39.1502 21.747 38.7039 21.8197C38.2577 21.8819 37.853 21.939 37.4898 21.9909C36.7114 22.105 36.0317 22.2867 35.4506 22.5357C34.8694 22.7848 34.418 23.122 34.0963 23.5475C33.7746 23.9626 33.6138 24.4815 33.6138 25.1041C33.6138 26.007 33.9406 26.6971 34.5944 27.1745C35.2586 27.6414 36.0992 27.8749 37.1162 27.8749ZM75.4736 14.9082L69.4028 15.2818C69.299 14.763 69.0759 14.296 68.7334 13.8809C68.391 13.4554 67.9395 13.1181 67.3792 12.8691C66.8291 12.6096 66.1702 12.4799 65.4022 12.4799C64.3749 12.4799 63.5083 12.6978 62.8027 13.1337C62.097 13.5592 61.7442 14.1299 61.7442 14.846C61.7442 15.4167 61.9725 15.8993 62.4291 16.2936C62.8857 16.688 63.6692 17.0045 64.7796 17.2432L69.107 18.1149C71.4316 18.5923 73.1646 19.3602 74.3061 20.4187C75.4477 21.4772 76.0184 22.8678 76.0184 24.5905C76.0184 26.1575 75.5566 27.5325 74.633 28.7155C73.7198 29.8986 72.4641 30.8222 70.866 31.4863C69.2782 32.1401 67.4466 32.467 65.3711 32.467C62.206 32.467 59.6842 31.808 57.8059 30.4901C55.938 29.1618 54.8431 27.3561 54.5214 25.073L61.0437 24.7306C61.2409 25.6957 61.7182 26.4325 62.4758 26.941C63.2333 27.4391 64.2036 27.6881 65.3867 27.6881C66.549 27.6881 67.4829 27.465 68.1886 27.0188C68.9046 26.5622 69.2679 25.9759 69.2782 25.2598C69.2679 24.6579 69.0136 24.165 68.5155 23.781C68.0174 23.3867 67.2494 23.0857 66.2117 22.8782L62.0711 22.0532C59.7361 21.5862 57.9979 20.7767 56.8564 19.6248C55.7252 18.4729 55.1596 17.0045 55.1596 15.2196C55.1596 13.6837 55.5747 12.3606 56.4049 11.2502C57.2455 10.1398 58.4234 9.28364 59.9385 8.68174C61.464 8.07985 63.2489 7.7789 65.2933 7.7789C68.3131 7.7789 70.6896 8.41712 72.4226 9.69355C74.166 10.97 75.183 12.7082 75.4736 14.9082ZM88.5787 18.1772V32H81.9475V0.120299H88.3919V12.3087H88.6721C89.2117 10.8973 90.0834 9.79214 91.2872 8.99307C92.491 8.18362 94.0009 7.7789 95.817 7.7789C97.4774 7.7789 98.9251 8.14211 100.16 8.86854C101.405 9.58458 102.37 10.6171 103.055 11.9662C103.751 13.3049 104.093 14.9082 104.083 16.7762V32H97.4515V17.9592C97.4618 16.4856 97.0882 15.3389 96.3307 14.5191C95.5835 13.6993 94.5354 13.2894 93.1863 13.2894C92.2835 13.2894 91.4844 13.4813 90.7891 13.8653C90.1042 14.2493 89.5645 14.8097 89.1702 15.5465C88.7862 16.2729 88.5891 17.1498 88.5787 18.1772ZM117.873 32.4514C116.347 32.4514 114.988 32.1868 113.794 31.6575C112.601 31.1179 111.657 30.324 110.961 29.2759C110.276 28.2174 109.934 26.8995 109.934 25.3221C109.934 23.9938 110.178 22.8782 110.665 21.9753C111.153 21.0725 111.817 20.3461 112.658 19.7961C113.499 19.246 114.453 18.8309 115.522 18.5508C116.601 18.2706 117.733 18.0734 118.916 17.9592C120.306 17.8139 121.427 17.679 122.278 17.5545C123.129 17.4196 123.746 17.2224 124.13 16.963C124.514 16.7036 124.706 16.3196 124.706 15.8111V15.7177C124.706 14.7318 124.395 13.9691 123.772 13.4295C123.16 12.8898 122.288 12.62 121.157 12.62C119.964 12.62 119.014 12.8846 118.309 13.4139C117.603 13.9328 117.136 14.5865 116.908 15.3752L110.774 14.8771C111.086 13.4243 111.698 12.1686 112.611 11.1101C113.524 10.0412 114.702 9.22137 116.145 8.65061C117.598 8.06947 119.279 7.7789 121.188 7.7789C122.517 7.7789 123.788 7.93456 125.002 8.24589C126.227 8.55721 127.311 9.03977 128.255 9.69355C129.21 10.3473 129.962 11.1879 130.512 12.2153C131.062 13.2323 131.337 14.4516 131.337 15.8734V32H125.049V28.6844H124.862C124.478 29.4316 123.964 30.0905 123.321 30.6613C122.677 31.2217 121.904 31.6627 121.001 31.9844C120.099 32.2958 119.056 32.4514 117.873 32.4514ZM119.772 27.8749C120.747 27.8749 121.609 27.683 122.356 27.299C123.103 26.9046 123.689 26.3754 124.115 25.7112C124.54 25.0471 124.753 24.2947 124.753 23.4541V20.9168C124.545 21.0517 124.26 21.1763 123.897 21.2904C123.544 21.3942 123.144 21.4928 122.698 21.5862C122.252 21.6692 121.806 21.747 121.36 21.8197C120.913 21.8819 120.509 21.939 120.145 21.9909C119.367 22.105 118.687 22.2867 118.106 22.5357C117.525 22.7848 117.074 23.122 116.752 23.5475C116.43 23.9626 116.269 24.4815 116.269 25.1041C116.269 26.007 116.596 26.6971 117.25 27.1745C117.914 27.6414 118.755 27.8749 119.772 27.8749ZM144.867 18.1772V32H138.236V8.09022H144.555V12.3087H144.836C145.365 10.9181 146.252 9.81808 147.497 9.00863C148.743 8.18881 150.253 7.7789 152.027 7.7789C153.688 7.7789 155.135 8.14211 156.37 8.86854C157.605 9.59496 158.565 10.6327 159.25 11.9818C159.935 13.3205 160.277 14.9186 160.277 16.7762V32H153.646V17.9592C153.656 16.496 153.283 15.3545 152.525 14.5347C151.768 13.7045 150.725 13.2894 149.397 13.2894C148.504 13.2894 147.715 13.4813 147.03 13.8653C146.356 14.2493 145.827 14.8097 145.443 15.5465C145.069 16.2729 144.877 17.1498 144.867 18.1772ZM179.719 32V0.120299H186.459V14.1766H186.879L198.351 0.120299H206.43L194.6 14.3946L206.57 32H198.507L189.774 18.8932L186.459 22.9404V32H179.719ZM222.774 21.8197V8.09022H229.405V32H223.038V27.657H222.789C222.25 29.058 221.352 30.1839 220.096 31.0349C218.851 31.8858 217.331 32.3113 215.536 32.3113C213.937 32.3113 212.531 31.9481 211.317 31.2217C210.103 30.4953 209.153 29.4627 208.468 28.124C207.794 26.7853 207.451 25.182 207.441 23.314V8.09022H214.072V22.131C214.083 23.5423 214.461 24.6579 215.209 25.4777C215.956 26.2976 216.957 26.7075 218.213 26.7075C219.012 26.7075 219.759 26.5259 220.454 26.1627C221.15 25.7891 221.71 25.2391 222.136 24.5126C222.571 23.7862 222.784 22.8885 222.774 21.8197ZM233.833 32V8.09022H240.152V12.3087H240.433C240.931 10.9077 241.761 9.80251 242.923 8.99307C244.086 8.18362 245.476 7.7789 247.095 7.7789C248.735 7.7789 250.13 8.18881 251.282 9.00863C252.434 9.81808 253.202 10.9181 253.586 12.3087H253.835C254.323 10.9389 255.205 9.84402 256.481 9.0242C257.768 8.194 259.289 7.7789 261.042 7.7789C263.274 7.7789 265.084 8.48976 266.475 9.91148C267.876 11.3228 268.576 13.3257 268.576 15.9201V32H261.961V17.2276C261.961 15.8993 261.608 14.9031 260.902 14.2389C260.197 13.5747 259.315 13.2427 258.256 13.2427C257.052 13.2427 256.113 13.6266 255.439 14.3946C254.764 15.1521 254.427 16.1535 254.427 17.3988V32H247.998V17.0875C247.998 15.9149 247.661 14.9809 246.986 14.2856C246.322 13.5903 245.445 13.2427 244.355 13.2427C243.619 13.2427 242.954 13.4295 242.363 13.803C241.782 14.1663 241.32 14.6799 240.978 15.3441C240.635 15.9979 240.464 16.7658 240.464 17.6479V32H233.833ZM279.756 32.4514C278.23 32.4514 276.871 32.1868 275.677 31.6575C274.484 31.1179 273.54 30.324 272.844 29.2759C272.16 28.2174 271.817 26.8995 271.817 25.3221C271.817 23.9938 272.061 22.8782 272.549 21.9753C273.036 21.0725 273.701 20.3461 274.541 19.7961C275.382 19.246 276.336 18.8309 277.405 18.5508C278.485 18.2706 279.616 18.0734 280.799 17.9592C282.189 17.8139 283.31 17.679 284.161 17.5545C285.012 17.4196 285.63 17.2224 286.013 16.963C286.397 16.7036 286.589 16.3196 286.589 15.8111V15.7177C286.589 14.7318 286.278 13.9691 285.655 13.4295C285.043 12.8898 284.171 12.62 283.04 12.62C281.847 12.62 280.897 12.8846 280.192 13.4139C279.486 13.9328 279.019 14.5865 278.791 15.3752L272.658 14.8771C272.969 13.4243 273.581 12.1686 274.494 11.1101C275.408 10.0412 276.586 9.22137 278.028 8.65061C279.481 8.06947 281.162 7.7789 283.071 7.7789C284.4 7.7789 285.671 7.93456 286.885 8.24589C288.11 8.55721 289.194 9.03977 290.139 9.69355C291.093 10.3473 291.846 11.1879 292.396 12.2153C292.946 13.2323 293.221 14.4516 293.221 15.8734V32H286.932V28.6844H286.745C286.361 29.4316 285.847 30.0905 285.204 30.6613C284.561 31.2217 283.788 31.6627 282.885 31.9844C281.982 32.2958 280.939 32.4514 279.756 32.4514ZM281.655 27.8749C282.63 27.8749 283.492 27.683 284.239 27.299C284.986 26.9046 285.572 26.3754 285.998 25.7112C286.423 25.0471 286.636 24.2947 286.636 23.4541V20.9168C286.429 21.0517 286.143 21.1763 285.78 21.2904C285.427 21.3942 285.028 21.4928 284.581 21.5862C284.135 21.6692 283.689 21.747 283.243 21.8197C282.796 21.8819 282.392 21.939 282.029 21.9909C281.25 22.105 280.57 22.2867 279.989 22.5357C279.408 22.7848 278.957 23.122 278.635 23.5475C278.313 23.9626 278.153 24.4815 278.153 25.1041C278.153 26.007 278.479 26.6971 279.133 27.1745C279.797 27.6414 280.638 27.8749 281.655 27.8749ZM297.489 32V8.09022H303.918V12.262H304.167C304.602 10.778 305.334 9.65723 306.361 8.89967C307.389 8.13173 308.572 7.74777 309.911 7.74777C310.243 7.74777 310.601 7.76852 310.985 7.81003C311.369 7.85154 311.706 7.90862 311.996 7.98126V13.8653C311.685 13.7719 311.254 13.6889 310.704 13.6162C310.154 13.5436 309.651 13.5073 309.194 13.5073C308.219 13.5073 307.347 13.72 306.579 14.1455C305.822 14.5606 305.22 15.1417 304.774 15.8889C304.338 16.6361 304.12 17.4974 304.12 18.4729V32H297.489Z" fill="#DEEBEE"/>
</svg>
