<svg width="477" height="42" viewBox="0 0 477 42" fill="none" xmlns="http://www.w3.org/2000/svg">
<path d="M18.4922 0.999999H26.8516V28.8906C26.8516 31.4687 26.2721 33.7083 25.1133 35.6094C23.9674 37.5104 22.3724 38.9753 20.3281 40.0039C18.2839 41.0326 15.9076 41.5469 13.1992 41.5469C10.7904 41.5469 8.60286 41.1237 6.63672 40.2773C4.68359 39.418 3.13411 38.1159 1.98828 36.3711C0.842448 34.6133 0.276042 32.4062 0.289062 29.75H8.70703C8.73307 30.8047 8.94792 31.7096 9.35156 32.4648C9.76823 33.207 10.3346 33.7799 11.0508 34.1836C11.7799 34.5742 12.6393 34.7695 13.6289 34.7695C14.6706 34.7695 15.5495 34.5482 16.2656 34.1055C16.9948 33.6497 17.5482 32.9857 17.9258 32.1133C18.3034 31.2409 18.4922 30.1667 18.4922 28.8906V0.999999ZM43.4883 41H34.4258L48.2344 0.999999H59.1328L72.9219 41H63.8594L53.8398 10.1406H53.5273L43.4883 41ZM42.9219 25.2773H64.3281V31.8789H42.9219V25.2773ZM101.272 12.5039C101.116 10.9284 100.446 9.70443 99.2607 8.83203C98.0758 7.95963 96.4678 7.52344 94.4365 7.52344C93.0563 7.52344 91.891 7.71875 90.9404 8.10937C89.9899 8.48698 89.2607 9.01432 88.7529 9.6914C88.2581 10.3685 88.0107 11.1367 88.0107 11.9961C87.9847 12.7122 88.1344 13.3372 88.46 13.8711C88.7985 14.4049 89.2607 14.8672 89.8467 15.2578C90.4326 15.6354 91.1097 15.9674 91.8779 16.2539C92.6462 16.5273 93.4665 16.7617 94.3389 16.957L97.9326 17.8164C99.6774 18.207 101.279 18.7279 102.737 19.3789C104.196 20.0299 105.459 20.8307 106.526 21.7812C107.594 22.7318 108.421 23.8516 109.007 25.1406C109.606 26.4297 109.912 27.9076 109.925 29.5742C109.912 32.0221 109.287 34.1445 108.05 35.9414C106.826 37.7253 105.055 39.112 102.737 40.1016C100.433 41.0781 97.6527 41.5664 94.3975 41.5664C91.1683 41.5664 88.3558 41.0716 85.96 40.082C83.5771 39.0924 81.7152 37.6276 80.374 35.6875C79.0459 33.7344 78.3493 31.319 78.2842 28.4414H86.4678C86.5589 29.7826 86.943 30.9023 87.6201 31.8008C88.3102 32.6862 89.2282 33.3568 90.374 33.8125C91.5329 34.2552 92.8415 34.4766 94.2998 34.4766C95.7321 34.4766 96.9756 34.2682 98.0303 33.8516C99.098 33.4349 99.9248 32.8555 100.511 32.1133C101.097 31.3711 101.39 30.5182 101.39 29.5547C101.39 28.6562 101.123 27.901 100.589 27.2891C100.068 26.6771 99.2998 26.1562 98.2842 25.7266C97.2816 25.2969 96.0511 24.9062 94.5928 24.5547L90.2373 23.4609C86.8649 22.6406 84.2021 21.3581 82.249 19.6133C80.2959 17.8685 79.3258 15.5182 79.3389 12.5625C79.3258 10.1406 79.9704 8.02474 81.2725 6.21484C82.5876 4.40495 84.391 2.99219 86.6826 1.97656C88.9743 0.960936 91.5785 0.453124 94.4951 0.453124C97.4639 0.453124 100.055 0.960936 102.269 1.97656C104.495 2.99219 106.227 4.40495 107.464 6.21484C108.701 8.02474 109.339 10.1211 109.378 12.5039H101.272ZM118.363 41V0.999999H126.82V17.5039H143.988V0.999999H152.426V41H143.988V24.4766H126.82V41H118.363ZM169.043 41H159.98L173.789 0.999999H184.688L198.477 41H189.414L179.395 10.1406H179.082L169.043 41ZM168.477 25.2773H189.883V31.8789H168.477V25.2773ZM239.498 0.999999V41H232.193L214.791 15.8242H214.498V41H206.041V0.999999H213.463L230.729 26.1562H231.08V0.999999H239.498ZM264.715 41V0.999999H273.172V18.6367H273.699L288.094 0.999999H298.23L283.387 18.9102L298.406 41H288.289L277.332 24.5547L273.172 29.6328V41H264.715ZM330.092 0.999999H338.549V26.9766C338.549 29.8932 337.852 32.4453 336.459 34.6328C335.079 36.8203 333.145 38.526 330.658 39.75C328.171 40.9609 325.274 41.5664 321.967 41.5664C318.646 41.5664 315.743 40.9609 313.256 39.75C310.769 38.526 308.835 36.8203 307.455 34.6328C306.075 32.4453 305.385 29.8932 305.385 26.9766V0.999999H313.842V26.2539C313.842 27.7773 314.174 29.1315 314.838 30.3164C315.515 31.5013 316.465 32.4323 317.689 33.1094C318.913 33.7865 320.339 34.125 321.967 34.125C323.607 34.125 325.033 33.7865 326.244 33.1094C327.468 32.4323 328.412 31.5013 329.076 30.3164C329.753 29.1315 330.092 27.7773 330.092 26.2539V0.999999ZM348.257 0.999999H358.687L369.702 27.875H370.171L381.187 0.999999H391.616V41H383.413V14.9648H383.081L372.729 40.8047H367.144L356.792 14.8672H356.46V41H348.257V0.999999ZM408.229 41H399.166L412.975 0.999999H423.873L437.662 41H428.6L418.58 10.1406H418.268L408.229 41ZM407.662 25.2773H429.068V31.8789H407.662V25.2773ZM445.227 41V0.999999H461.008C464.029 0.999999 466.607 1.54036 468.742 2.62109C470.891 3.6888 472.525 5.20573 473.645 7.17188C474.777 9.125 475.344 11.4232 475.344 14.0664C475.344 16.7227 474.771 19.0078 473.625 20.9219C472.479 22.8229 470.819 24.2812 468.645 25.2969C466.483 26.3125 463.866 26.8203 460.793 26.8203H450.227V20.0234H459.426C461.04 20.0234 462.382 19.8021 463.449 19.3594C464.517 18.9167 465.311 18.2526 465.832 17.3672C466.366 16.4818 466.633 15.3815 466.633 14.0664C466.633 12.7383 466.366 11.6185 465.832 10.707C465.311 9.79557 464.51 9.10547 463.43 8.63672C462.362 8.15495 461.014 7.91406 459.387 7.91406H453.684V41H445.227ZM466.828 22.7969L476.77 41H467.434L457.707 22.7969H466.828Z" fill="#DEEBEE"/>
</svg>
